<?xml version="1.0" encoding="UTF-8" standalone="no"?>
<!-- Created with Inkscape (http://www.inkscape.org/) -->

<svg
   width="106.92128mm"
   height="125.88771mm"
   viewBox="0 0 106.92128 125.88771"
   version="1.1"
   id="svg1"
   xmlns="http://www.w3.org/2000/svg"
   xmlns:svg="http://www.w3.org/2000/svg">
  <defs
     id="defs1">
    <clipPath
       clipPathUnits="userSpaceOnUse"
       id="clipPath3">
      <path
         d="M 0,792 H 612 V 0 H 0 Z"
         transform="translate(-264.21481,-157.3975)"
         id="path3" />
    </clipPath>
    <clipPath
       clipPathUnits="userSpaceOnUse"
       id="clipPath5">
      <path
         d="M 0,792 H 612 V 0 H 0 Z"
         transform="translate(-295.95121,-188.5039)"
         id="path5" />
    </clipPath>
    <clipPath
       clipPathUnits="userSpaceOnUse"
       id="clipPath7">
      <path
         d="M 0,792 H 612 V 0 H 0 Z"
         transform="translate(-264.72271,-159.04881)"
         id="path7" />
    </clipPath>
    <clipPath
       clipPathUnits="userSpaceOnUse"
       id="clipPath9">
      <path
         d="M 0,792 H 612 V 0 H 0 Z"
         transform="translate(-262.9297,-161.5752)"
         id="path9" />
    </clipPath>
    <clipPath
       clipPathUnits="userSpaceOnUse"
       id="clipPath11">
      <path
         d="M 0,792 H 612 V 0 H 0 Z"
         transform="translate(-218.25001,-187.5)"
         id="path11" />
    </clipPath>
    <clipPath
       clipPathUnits="userSpaceOnUse"
       id="clipPath13">
      <path
         d="M 0,792 H 612 V 0 H 0 Z"
         transform="matrix(1,0,0,-0.99999028,-181.2261,106.21867)"
         id="path13" />
    </clipPath>
    <clipPath
       clipPathUnits="userSpaceOnUse"
       id="clipPath15">
      <path
         d="M 0,792 H 612 V 0 H 0 Z"
         transform="matrix(1,0,0,-0.99999148,-221.25781,106.2188)"
         id="path15" />
    </clipPath>
    <clipPath
       clipPathUnits="userSpaceOnUse"
       id="clipPath17">
      <path
         d="M 0,792 H 612 V 0 H 0 Z"
         transform="matrix(1,0,0,-1,-220.7725,76.151402)"
         id="path17" />
    </clipPath>
  </defs>
  <g
     id="layer1"
     transform="translate(-50.698234,-19.843749)">
    <path
       id="path1"
       d="M 130.79596,120.8029 H 64.395423 V 32.424658 h 66.400537 z"
       style="fill:#91268f;fill-opacity:1;fill-rule:nonzero;stroke:none;stroke-width:0.352777" />
    <path
       id="path2"
       d="m 0,0 c 0,0 88.17,118.039 96.666,127.842 8.489,9.8 11.813,11.878 16.405,13.432 4.583,1.554 10.088,1.742 11.947,1.466 1.859,-0.276 7.159,-2.961 9.194,-2.816 2.026,0.145 3.322,2.078 3.322,2.078 l 0.795,3.121 c 0,0 -2.846,2.657 -3.784,1.568 -0.946,-1.089 -1.644,-2.772 -2.905,-2.251 -1.263,0.525 -3.894,0.13 -3.791,1.569 0.099,1.437 1.963,1.162 1.641,2.773 -0.322,1.612 2.309,2.001 -0.322,1.612 -2.626,-0.395 1.539,1.334 -2.626,-0.395 l -4.166,-1.727 c 0,0 -1.965,-1.163 -4.413,-1.132 -2.457,0.028 -5.853,-1.033 -5.853,-1.033 0,0 -5.461,-3.659 -3.226,-0.639 2.239,3.019 5.84,6.955 5.84,6.955 0,0 3.047,0.219 3.991,1.308 0.946,1.088 6.942,0.087 7.638,1.771 0.696,1.686 -0.043,3.471 1.567,3.791 1.611,0.32 -0.22,3.05 1.611,0.32 1.828,-2.73 3.094,-3.254 5.546,-3.283 2.457,-0.026 3.048,0.22 3.996,1.308 0.944,1.091 0.3,4.313 0.3,4.313 4.239,0.711 7.083,-1.943 6.518,0.263 -0.565,2.208 -6.983,3.38 -6.983,3.38 0,0 -0.913,1.365 2.731,1.832 3.647,0.464 2.556,1.406 5.502,0.19 2.948,-1.22 4.63,-1.916 6.316,-2.615 1.685,-0.695 5.65,-1.842 3.149,1.656 l -2.497,3.499 c 0,0 -1.042,-2.527 0,0 1.048,2.529 0.481,4.734 0.481,4.734 0,0 0.243,-0.595 0.697,1.685 0.452,2.278 2.307,2.002 -1.234,2.976 -3.544,0.971 -0.349,-0.844 -3.544,0.971 -3.196,1.818 -3.442,2.413 -5.401,1.249 -1.961,-1.162 -1.569,-3.792 -1.961,-1.162 -0.391,2.628 3.603,3.935 5.633,4.081 2.033,0.145 1.364,0.914 4.909,-0.058 3.541,-0.971 6.488,-2.192 6.488,-2.192 0,0 0.349,0.841 0.032,2.454 -0.317,1.613 -1.963,-1.161 -0.317,1.613 1.637,2.773 3.887,-0.129 1.637,2.773 -2.253,2.905 -3.939,3.6 -5.622,4.297 -1.683,0.695 -4.109,3.179 -2.844,2.656 1.261,-0.523 6.244,-1.597 6.244,-1.597 l 3.818,0.886 1.321,4.385 c 0,0 0.87,2.106 3.571,1.482 2.7,-0.625 1.411,-2.552 2.7,-0.625 1.293,1.934 0.55,3.717 -0.709,4.239 -1.266,0.523 -3.794,1.568 -3.794,1.568 l 3.646,0.467 c 0,0 -0.67,0.77 -2.604,2.061 -1.927,1.29 -2.177,1.887 -0.881,3.819 1.289,1.93 4.833,0.959 6.344,-0.161 1.51,-1.117 3.73,-6.475 3.272,-2.829 l -0.47,3.644 c 0,0 -2.354,1.466 0.274,1.857 2.629,0.392 5.374,-3.7 2.629,0.392 -2.746,4.095 -2.668,3.078 -0.436,6.101 2.236,3.019 2.262,5.474 5.168,7.724 2.903,2.248 0.202,2.875 3.773,4.355 3.574,1.481 3.471,0.045 5.604,1.629 2.135,1.581 2.181,-1.889 2.135,1.581 -0.046,3.47 1.248,5.401 -1.202,5.43 -2.457,0.029 -2.807,-0.815 -3.331,-2.077 -0.522,-1.263 1.517,-1.119 -2.059,-2.599 -3.574,-1.483 -3.223,-0.638 -5.106,-2.816 -1.892,-2.181 -1.646,-2.775 -3.533,-4.957 -1.885,-2.173 -1.566,-3.785 -4.268,-3.16 -2.7,0.621 -5.5,-0.19 -5.183,-1.801 0.322,-1.61 2.006,-2.309 2.006,-2.309 0,0 -2.236,-3.02 -3.919,-2.325 -1.682,0.699 -2.281,0.45 -2.804,-0.813 -0.52,-1.262 -0.55,-3.716 -2.236,-3.02 -1.684,0.696 -4.039,2.165 -4.039,2.165 0,0 -0.939,-1.091 -1.813,-3.198 -0.868,-2.103 -1.738,-4.209 -4.122,-5.198 -2.376,-0.988 -3.992,-1.305 -4.933,-2.395 -0.948,-1.09 -2.761,-4.284 -3.459,-5.969 -0.693,-1.682 1.557,-4.584 1.557,-4.584 l -1.146,-3.967 c 0,0 -3.849,-3.339 -5.631,-4.082 -1.792,-0.737 -4.52,-2.57 -4.52,-2.57 0,0 -3.22,-0.64 -4.585,-1.555 -1.367,-0.912 -3.226,-0.639 -4.096,-2.74 -0.872,-2.108 -2.409,-3.444 -2.266,-5.476 0.149,-2.034 2.223,-5.358 2.223,-5.358 0,0 -0.696,-1.685 -1.985,-3.614 -1.296,-1.934 -3.255,-3.096 -5.214,-4.257 -1.958,-1.159 -2.978,-1.234 -5.807,-4.501 -2.828,-3.267 -24.171,-33.396 -24.171,-33.396 0,0 -86.922,-112.64 -89.43,-117.521 C -2.918,3.67 0,0 0,0"
       style="fill:#f7931d;fill-opacity:1;fill-rule:nonzero;stroke:none"
       transform="matrix(0.35277776,0,0,-0.35277776,80.690866,115.71884)"
       clip-path="url(#clipPath3)" />
    <path
       id="path4"
       d="m 0,0 c 0,0 59.485,82.084 107.328,94.498 7.431,1.227 14.06,0.958 14.06,0.958 l 3.792,-0.09 -1.69,2.662 -2.528,1.632 c 0,0 -0.188,1.87 1.683,2.059 1.867,0.189 5.93,2.019 5.93,2.019 l 4.816,-0.927 c 0,0 2.526,-1.632 3.879,-1.022 1.356,0.608 2.051,3.04 2.051,3.04 l 0.833,5.753 8.366,1.319 5.422,2.439 -1.646,2.195 2.239,1.172 2.948,-1.116 2.34,0.236 -0.428,4.205 -2.479,1.167 4.109,1.361 1.967,-0.746 4.205,0.428 2.098,2.574 1.82,0.657 4.628,0.942 1.298,5.799 5.047,1.455 2.704,1.222 1.537,3.461 -2.424,0.696 -9.348,-0.949 -14.01,-6.147 -2.105,-2.574 -1.165,-2.476 c 0,0 -4.111,-1.364 -5.506,-1.508 -1.403,-0.142 -4.677,-0.473 -4.677,-0.473 l -4.112,-1.362 -0.132,-3.318 -8.174,-3.191 -6.072,-0.616 -5.612,-0.571 -1.583,-2.994 -3.635,-6.036 c 0,0 -4.711,-4.726 -6.583,-4.917 -1.87,-0.189 -7.563,-4.547 -7.563,-4.547 l -2.523,-3.085 c 0,0 -40.47,-18.305 -104.711,-92.346 C -67.841,-71.101 0,0 0,0"
       style="fill:#f7931d;fill-opacity:1;fill-rule:nonzero;stroke:none"
       transform="matrix(0.35277776,0,0,-0.35277776,91.886763,104.74519)"
       clip-path="url(#clipPath5)" />
    <path
       id="path6"
       d="m 0,0 c 0,0 0.383,0.326 1.096,0.924 6.661,5.613 52.008,45.078 68.821,52.592 18.602,8.309 11.18,2.343 12.673,0.856 1.496,-1.491 3.367,-7.844 3.367,-7.844 0,0 3.105,-0.128 2.597,0.692 -0.509,0.817 -2.875,5.826 -2.875,5.826 0,0 0.689,4.653 1.335,4.524 0.643,-0.128 3.905,-6.272 3.453,-8.576 -0.452,-2.305 0.328,-6.292 0.328,-6.292 1.728,0.857 1.728,0.857 2.094,2.704 0.358,1.844 -0.566,3.94 -0.422,5.827 0.149,1.887 -1.596,4.383 -0.248,5.555 1.349,1.172 2.23,-1.159 2.23,-1.159 0,0 2.126,-2.809 2.716,-4.363 0.589,-1.55 1.252,-3.835 1.945,-3.729 0.694,0.103 1.381,0.204 1.135,1.213 -0.252,1.005 -0.649,0.124 -0.265,4.353 0.382,4.239 -0.508,5.37 -0.146,7.213 0.359,1.842 -0.789,2.789 0.359,1.842 1.159,-0.941 0.118,-1.694 0.704,-3.246 0.589,-1.553 2.085,-3.046 2.401,-5.976 0.317,-2.938 1.254,-3.838 1.254,-3.838 l 0.672,2.261 c 0,0 0.28,2.575 0.893,3.412 0.61,0.838 1.702,-1.529 1.702,-1.529 0,0 0.92,-3.292 1.838,-2.039 0.919,1.258 0.543,2.765 0.543,2.765 l 1.146,2.411 c 0,0 -2.492,0.97 1.505,-0.293 3.991,-1.266 2.434,-2.397 3.991,-1.266 1.565,1.126 3.77,2.133 3.77,2.133 l 2.883,-0.089 2.367,-0.469 0.194,2.117 c 0,0 -0.543,1.787 1.413,-0.757 l 1.961,-2.537 1.76,-0.107 1.677,-0.569 c 0,0 2.309,-1.892 2.906,-2.248 0.601,-0.356 0.874,1.026 0.874,1.026 0,0 -2.421,3.587 -3.312,4.72 -0.897,1.133 -4.618,3.776 -5.175,4.368 -0.552,0.587 -5.317,2.478 -6.135,2.883 -0.813,0.397 -11.055,1.693 -11.055,1.693 L 99.539,65.639 78.592,60.182 c 0,0 -11.969,-4.108 -14.006,-5.381 C 62.549,53.526 53.407,47.902 52.148,47.191 50.895,46.48 40.48,38.956 38.702,37.867 36.924,36.784 16.688,20.175 15.342,19 13.994,17.831 0.372,3.035 0.372,3.035 Z"
       style="fill:#f7931d;fill-opacity:1;fill-rule:nonzero;stroke:none"
       transform="matrix(0.35277776,0,0,-0.35277776,80.870042,115.1363)"
       clip-path="url(#clipPath7)" />
    <path
       id="path8"
       d="m 0,0 c 0,0 95.592,187.819 102.121,193.552 6.535,5.731 7.111,5.486 9.7,4.529 2.583,-0.959 8.058,-3.144 8.058,-3.144 0,0 1.135,-0.202 0.443,1.485 -0.689,1.686 -2.301,4.462 -2.301,4.462 0,0 -1.014,2.243 1.209,2.416 2.216,0.173 3.374,-0.317 6.149,-0.1 2.769,0.216 9.221,-0.15 7.146,1.428 -2.081,1.578 -6.481,7.907 -6.481,7.907 0,0 -0.252,3.171 3.009,0.816 3.253,-2.358 3.185,-1.493 2.54,-0.383 -0.649,1.109 -3.666,4.065 -4.035,5.197 -0.37,1.133 -1.47,4.526 1.739,2.748 3.209,-1.781 4.476,-3.713 4.596,-1.671 0.117,2.037 -2.536,3.862 -2.924,5.282 -0.39,1.419 -3.5,5.529 -0.659,4.881 2.841,-0.649 2.215,-3.309 3.898,-3.468 1.685,-0.158 5.128,-1.341 5.291,0.123 0.168,1.464 -1.63,3.064 -1.63,3.064 0,0 1.485,2.436 2.591,2.523 1.111,0.088 1.927,3.92 1.927,3.92 l -2.7,2.401 c 0,0 -0.623,0.823 0.746,1.22 1.367,0.395 2.151,1.039 1.806,1.881 -0.345,0.842 -2.214,3.308 -2.214,3.308 0,0 0.463,1.197 1.855,1.306 l 1.388,0.108 c 0,0 2.469,0.484 1.569,1.282 -0.9,0.8 -1.409,0.182 -0.9,0.8 0.513,0.622 0.744,1.221 0.673,2.083 -0.062,0.865 -1.173,0.78 -1.61,2.777 -0.433,1.995 -3.977,0.851 -0.433,1.995 3.539,1.147 4.735,0.082 4.648,1.235 -0.091,1.154 -1.389,-0.11 0.652,2.372 l 2.037,2.479 c 0,0 0.72,1.508 1.785,2.17 1.066,0.663 2.179,0.75 2.385,1.638 0.213,0.887 -1.608,2.774 -1.608,2.774 0,0 -1.991,0.426 -3.351,0.029 -1.374,-0.398 -1.487,-2.436 -2.53,-3.387 -1.039,-0.955 -0.979,-1.818 -2.596,-2.527 -1.622,-0.704 -1.809,-1.877 -2.294,-2.788 -0.489,-0.908 -1.184,-2.703 -2.248,-3.366 -1.067,-0.664 -3.007,-0.816 -3.007,-0.816 l -2.737,-4.276 -2.319,-2.503 -1.207,-2.413 c 0,0 -1.85,-1.306 -2.568,-2.811 -0.721,-1.506 -2.256,-3.368 -3.526,-4.916 -1.271,-1.552 -4.631,-5.004 -4.631,-5.004 l -1.422,-3.302 c 0,0 -0.674,-2.083 -1.438,-3.014 -0.766,-0.932 -2.801,-3.408 -3.801,-4.938 -0.995,-1.529 -2.271,-3.078 -4.053,-5.25 -1.787,-2.17 -3.06,-3.718 -3.548,-4.629 -0.491,-0.906 -1.282,-5.031 -1.282,-5.031 l -2.762,-3.986 -1.968,-3.346 0.199,-2.596 -1.183,-2.701 c 0,0 -99.678,-174.795 -100.237,-189.054"
       style="fill:#f7931d;fill-opacity:1;fill-rule:nonzero;stroke:none"
       transform="matrix(0.35277776,0,0,-0.35277776,80.237511,114.24504)"
       clip-path="url(#clipPath9)" />
    <path
       id="path10"
       d="M 0,0 C 0,0 65.751,-6.156 113.385,-45.959 H 0 Z"
       style="fill:#ffffff;fill-opacity:1;fill-rule:nonzero;stroke:none"
       transform="matrix(0.35361763,0,0,-0.34239492,64.380278,105.09935)"
       clip-path="url(#clipPath11)" />
    <path
       id="path12"
       d="m 4.3256578,-3.1630817 c 0.28125,1.2890499 6.8320312,3.96089894 12.1640622,3.96089894 16.347657,0 20.589844,-9.08194294 20.589844,-15.12875924 0,-19.863088 -29.2265624,-11.953009 -29.2265624,-25.488033 0,-6.62103 6.0468754,-9.351472 11.7304684,-9.351472 6.339844,0 11.589844,3.164032 13.757813,9.351472 0.210937,0.656243 0.714844,2.167947 1.511719,2.167947 0.714843,0 0.855468,-0.503901 0.785156,-1.078114 l -1.078125,-9.79678 c -0.07031,-0.796867 -0.433594,-1.007803 -0.867188,-1.007803 -0.714843,0 -0.855468,0.796868 -1.511718,0.796868 -1.007813,0 -3.375,-2.601538 -12.09375,-2.601538 -8.273438,0 -15.9843754,4.394489 -15.9843754,13.535025 0,18.796692 29.2382814,11.015518 29.2382814,24.91382 0,7.5585206 -6.703125,11.3787959 -13.535156,11.3787959 -9.9375004,0 -14.2617192,-7.4882084 -15.1289067,-10.8045829 -0.3515625,-1.511704 -0.3515625,-2.367164 -1.359375,-2.367164 -0.7265625,0 -1.0898437,0.785149 -0.796875,2.226541 z m 0,0"
       style="fill:#231f20;fill-opacity:1;fill-rule:nonzero;stroke:none"
       aria-label="S"
       transform="matrix(0.35277776,0,0,0.3527812,49.844739,135.02065)"
       clip-path="url(#clipPath13)" />
    <path
       id="path14"
       d="m 5.2861453,-4.9560388 c 0,4.6288666 -3.6445312,3.0820048 -3.6445312,4.4413682 0,0.46874599 0.140625,0.70311899 0.5039062,0.70311899 0.1875,0 0.703125,-0.18749839813 4.03125,-0.18749839813 2.4726563,0 5.8828127,0.18749839813 6.4921877,0.18749839813 0.421875,0 0.75,-0.1406238 0.75,-0.37499679 0,-1.4531126 -4.4414064,-0.42187139 -4.4414064,-3.5976255 V -15.420793 c 0,-0.515621 0,-0.796868 0.5625,-0.796868 H 26.790052 c 0.5625,0 0.375,0.421871 0.375,1.171865 v 11.2147475 c 0,2.94138111 -3.28125,2.2851367 -3.28125,3.4101271 0,0.74999358 0.703125,0.60936979 1.125,0.60936979 0.890625,0 2.203125,-0.18749839813 5.191406,-0.18749839813 1.675781,0 3.128906,0.18749839813 4.394531,0.18749839813 0.328125,0 0.515625,-0.42187139 0.515625,-0.56249519 0,-1.171865 -4.253906,-0.32812219 -4.253906,-3.7382493 V -28.885522 c 0,-3.222628 3.128906,-2.437479 3.128906,-3.269503 0,-0.281247 -0.09375,-0.749993 -1.3125,-0.749993 -0.925781,0 -1.628906,0.187498 -3.363281,0.187498 -0.890625,0 -3.316406,-0.187498 -4.863281,-0.187498 -0.703125,0 -0.796875,0.234373 -0.796875,0.51562 0,1.066397 3.515625,0.281248 3.515625,3.503876 v 9.585856 c 0,0.17578 0.09375,1.347645 -0.375,1.347645 H 9.6806766 c -0.703125,0 -0.703125,-0.187499 -0.703125,-0.843743 v -10.089758 c 0,-3.503876 3.3632814,-2.624977 3.3632814,-3.55075 0,-0.187499 -0.09375,-0.468746 -0.890625,-0.468746 -1.441406,0 -2.8945314,0.187498 -4.3476564,0.187498 -1.7226563,0 -3.4101563,-0.187498 -5.1328125,-0.187498 -0.375,0 -0.75,0.09375 -0.75,0.51562 0,1.019523 4.0195312,0.09375 4.0664062,3.503876 z M 53.294934,-31.791747 c 9.117188,0 14.871094,8.285086 14.871094,16.792825 0,8.6366452 -5.472656,14.10925461 -12.304687,14.10925461 -9.246094,0 -14.90625,-8.36711591 -14.90625,-17.01547961 0,-7.382749 4.488281,-13.8866 12.339843,-13.8866 z m 0.609375,32.30831758 c 10.417969,0 17.671875,-6.78509818 17.671875,-17.29672658 0,-9.679605 -7.347656,-16.546734 -16.875,-16.546734 -9.585937,0 -17.15625,7.054627 -17.15625,16.781107 0,9.8671026 6.210938,17.06235358 16.359375,17.06235358 z M 91.21095,-16.733282 c 3.269531,-1.312489 5.882812,-4.441368 5.882812,-8.085868 0,-9.02336 -10.324218,-8.085868 -11.074218,-8.085868 -2.425782,0 -5.097657,0.187498 -7.804688,0.187498 -2.390625,0 -2.15625,-0.187498 -2.988281,-0.187498 -0.5625,0 -0.9375,0.281247 -0.9375,0.562495 0,1.582017 4.019531,-0.328122 4.019531,4.16012 v 23.7888593 c 0,3.55075091 -3.410156,2.8945065 -3.410156,4.0663715 0,0.28124759 0.1875,0.51562059 0.46875,0.51562059 1.769531,0 3.550781,-0.18749839813 5.320312,-0.18749839813 3.878907,0 4.957032,0.18749839813 5.378907,0.18749839813 0.375,0 0.796875,0.0937492 0.796875,-0.37499679 0,-1.5937364 -4.863282,-0.1406238 -4.863282,-4.1601207 v -9.8671029 c 0,-0.468746 -0.28125,-1.30077 1.21875,-1.30077 5.238282,0 4.535157,-0.140624 6.210938,2.472635 l 5.191406,8.1796174 c 1.78125,2.6718521 3.597656,5.05073799 7.007814,5.05073799 0.42187,0 3.04687,0 3.04687,-0.56249519 0,-1.1249904 -2.29687,0.60936979 -5.660153,-4.5351174 z m -9.210938,-12.902233 c 0,-1.82811 0.984375,-1.73436 2.660157,-1.73436 4.582031,0 8.929687,1.921858 8.929687,7.628841 0,5.789013 -4.488281,6.632755 -6.492187,6.632755 -2.203125,0 -5.097657,0.234373 -5.097657,-0.656244 z m 31.415038,1.640611 c 0,-3.140598 -0.0937,-2.9531 4.39453,-2.9531 1.875,0 6.72657,-0.281248 7.94532,1.312489 0.75,1.078116 0,3.316378 1.125,3.316378 0.28125,0 0.9375,-0.374997 0.9375,-5.55464 0,-0.562495 -0.0937,-1.031241 -0.46875,-1.031241 -1.45313,0 -5.75391,0.187498 -6.69141,0.187498 -1.95703,0 -4.39453,-0.187498 -13.23047,-0.187498 -1.34766,0 -1.62891,0.187498 -1.62891,0.562495 0,0.550776 1.03125,0.644525 1.39454,0.738275 2.53125,0.374996 2.53125,2.624977 2.53125,4.722616 v 21.3162234 c 0,2.2031061 -0.0937,3.5038762 -1.3125,4.0663714 -1.48829,0.74999361 -1.95704,0.65624441 -2.05079,1.2187396 0,0.37499679 0.28125,0.46874599 0.69141,0.46874599 1.875,0 3.84375,-0.1406238 5.70703,-0.18749839813 3.55078,-0.0937492019 7.10156,0.18749839813 10.66406,0.18749839813 2.05079,0 3.08204,0.0937492 4.58204,-1.59373639 1.11328,-1.2070209 2.33203,-2.8476319 2.33203,-4.5351174 0,-0.093749 -0.0469,-0.5507766 -0.375,-0.5507766 -0.60938,0 -2.19141,4.8046464 -12.9961,4.8046464 -3.92578,0 -3.55078,-1.1132717 -3.55078,-3.878873 v -8.6014894 c 0,-0.703119 -0.14062,-1.488268 0.84375,-1.488268 h 6.91406 c 3.92579,0 2.34375,4.113246 3.78516,4.113246 0.32813,0 0.51563,-0.187498 0.51563,-0.60937 0,-1.265614 -0.0937,-2.484354 -0.0937,-3.691374 0,-1.499988 0.0937,-3.093724 0.0937,-4.722616 0,-0.374997 -0.14063,-0.890618 -0.51563,-0.890618 -1.11328,0 0.14063,3.73825 -4.72266,3.73825 h -5.03906 c -1.875,0 -1.78125,0 -1.78125,-1.582018 z m 20.24121,25.9333716 c 0.1875,0.8437428 4.44141,2.57810298 7.89844,2.57810298 10.61719,0 13.37109,-5.89448078 13.37109,-9.82022848 0,-12.9022331 -18.97265,-7.7577461 -18.97265,-16.5467331 0,-4.300745 3.92578,-6.070261 7.61718,-6.070261 4.11329,0 7.52344,2.050764 8.92969,6.070261 0.14063,0.421871 0.46875,1.406238 0.98438,1.406238 0.46875,0 0.5625,-0.328123 0.51562,-0.703119 l -0.70312,-6.363227 c -0.0469,-0.503902 -0.28125,-0.644526 -0.5625,-0.644526 -0.46875,0 -0.5625,0.503902 -0.98438,0.503902 -0.65625,0 -2.1914,-1.675767 -7.85156,-1.675767 -5.37891,0 -10.38281,2.847632 -10.38281,8.788987 0,12.199115 18.98437,7.148377 18.98437,16.1717371 0,4.9101142 -4.34765,7.38274931 -8.78906,7.38274931 -6.45703,0 -9.25781,-4.86323961 -9.82031,-7.00775251 -0.23438,-0.9843666 -0.23438,-1.5468618 -0.89063,-1.5468618 -0.45703,0 -0.6914,0.5156206 -0.5039,1.4531126 z m 28.94531,-2.8945064 c 0,4.6288666 -3.64453,3.0820048 -3.64453,4.4413682 0,0.46874599 0.12891,0.70311899 0.97266,0.70311899 0.65625,0 1.64062,-0.18749839813 4.48828,-0.18749839813 2.01563,0 4.01953,0.18749839813 5.09766,0.18749839813 0.79687,0 0.9375,-0.1406238 0.9375,-0.46874599 0,-1.406238 -4.16016,-0.32812219 -4.16016,-3.5038763 V -28.885522 c 0,-3.503876 3.36328,-2.437479 3.36328,-3.55075 0,-0.374997 -0.14062,-0.468746 -0.89062,-0.468746 -1.44141,0 -2.89453,0.187498 -4.34766,0.187498 -1.72266,0 -3.41016,-0.187498 -5.14453,-0.187498 -0.36328,0 -0.45703,0.09375 -0.45703,0.51562 0,1.019523 3.73828,0.09375 3.78515,3.503876 z m 18.88477,-23.8357332 c 0,-2.203107 0.1875,-2.9531 4.62891,-2.9531 8.88281,0.04687 15.79687,5.941355 15.79687,16.324079 0,10.7928763 -6.30469,14.3436272 -12.94922,14.3436272 -2.09765,0 -5.66015,-0.5624952 -7.19531,-2.0976383 -0.42187,-0.4218714 -0.28125,-2.6718521 -0.28125,-3.4101271 z m -3.69141,24.1638553 c 0,4.4413683 -3.3164,3.2695033 -3.3164,4.3476191 0,0.28124759187 0.082,0.46874599 0.45703,0.46874599 0.32812,0 4.81641,-0.18749839813 5.23828,-0.18749839813 2.39063,0 4.76953,0.18749839813 7.14844,0.18749839813 12.94922,0 18.04687,-7.42962389 18.04687,-18.18734439 0,-8.648364 -8.13281,-14.906122 -16.40625,-14.906122 -4.01953,0 -7.05468,0.187498 -10.14843,0.187498 -1.39454,0 -2.75391,-0.187498 -4.20704,-0.187498 -0.26953,0 -0.64453,0.140623 -0.64453,0.468746 0,1.253895 3.83203,-0.234373 3.83203,4.535117 z m 36.92872,-23.3669873 c 0,-3.140598 -0.0937,-2.9531 4.39453,-2.9531 1.875,0 6.72656,-0.281248 7.94531,1.312489 0.75,1.078116 0,3.316378 1.125,3.316378 0.28125,0 0.9375,-0.374997 0.9375,-5.55464 0,-0.562495 -0.0937,-1.031241 -0.46875,-1.031241 -1.45313,0 -5.75391,0.187498 -6.69141,0.187498 -1.95703,0 -4.39453,-0.187498 -13.23047,-0.187498 -1.34765,0 -1.6289,0.187498 -1.6289,0.562495 0,0.550776 1.03125,0.644525 1.39453,0.738275 2.53125,0.374996 2.53125,2.624977 2.53125,4.722616 v 21.3162234 c 0,2.2031061 -0.0937,3.5038762 -1.3125,4.0663714 -1.48828,0.74999361 -1.95703,0.65624441 -2.05078,1.2187396 0,0.37499679 0.28125,0.46874599 0.6914,0.46874599 1.875,0 3.84375,-0.1406238 5.70704,-0.18749839813 3.55078,-0.0937492019 7.10156,0.18749839813 10.66406,0.18749839813 2.05078,0 3.08203,0.0937492 4.58203,-1.59373639 1.11328,-1.2070209 2.33203,-2.8476319 2.33203,-4.5351174 0,-0.093749 -0.0469,-0.5507766 -0.375,-0.5507766 -0.60937,0 -2.19141,4.8046464 -12.99609,4.8046464 -3.92578,0 -3.55078,-1.1132717 -3.55078,-3.878873 v -8.6014894 c 0,-0.703119 -0.14063,-1.488268 0.84375,-1.488268 h 6.91406 c 3.92578,0 2.34375,4.113246 3.78515,4.113246 0.32813,0 0.51563,-0.187498 0.51563,-0.60937 0,-1.265614 -0.0937,-2.484354 -0.0937,-3.691374 0,-1.499988 0.0937,-3.093724 0.0937,-4.722616 0,-0.374997 -0.14063,-0.890618 -0.51563,-0.890618 -1.11328,0 0.14063,3.73825 -4.72265,3.73825 h -5.03906 c -1.875,0 -1.78125,0 -1.78125,-1.582018 z m 0,0"
       style="fill:#231f20;fill-opacity:1;fill-rule:nonzero;stroke:none"
       aria-label="HORESIDE"
       transform="matrix(0.35277776,0,0,0.35278078,63.967033,135.02065)"
       clip-path="url(#clipPath15)" />
    <path
       id="path16"
       d="m 20.308555,-15.609342 c -0.105469,-3.175781 2.027343,-2.027344 2.027343,-2.882813 0,-0.152343 -0.105468,-0.316406 -0.269531,-0.316406 -0.421875,0 -0.667969,0.105469 -1.277344,0.105469 -0.140625,0 -0.996093,-0.105469 -1.253906,-0.105469 -0.328125,-0.02344 -0.539062,0.609375 -0.703125,0.902344 L 12.48043,-5.1327797 c -0.433594,0.8789063 -0.703125,1.4414063 -0.832032,1.4414063 -0.1875,0 -0.292968,-0.234375 -0.585937,-0.796875 L 4.6991797,-18.058561 c -0.1289063,-0.292969 -0.1875,-0.75 -0.5625,-0.75 -0.4804688,0 -0.9609375,0.105469 -1.4414063,0.105469 -0.5039062,0 -0.984375,-0.105469 -1.4648437,-0.105469 -0.24609376,0 -0.45703126,0.04687 -0.45703126,0.292969 0,0.902344 2.54296876,-0.585938 2.54296876,5.695312 0,2.8242191 -0.328125,5.6601566 -0.6445313,10.0195316 -0.1875,2.77734371 -1.89843746,1.6757812 -1.89843746,2.58984371 0,0.1875 0.0820313,0.31640625 0.26953126,0.31640625 0.4804687,0 0.9375,-0.1054687475 2.3203125,-0.1054687475 0.8085937,0 2.0039062,0.1054687475 2.3554687,0.1054687475 0.375,0 0.6679688,-0.0234375 0.6679688,-0.29296875 0,-0.96093751 -2.5429688,0.2109375 -2.4023438,-3.33984371 l 0.3164063,-9.3750001 c 0.023437,-0.269531 0.1054687,-0.398437 0.1875,-0.398437 0.1054687,0 0.2460937,0.07031 0.3164062,0.292968 l 5.6953126,11.9179691 c 0.08203,0.17578121 0.269531,0.77343746 0.539062,0.77343746 0.257813,0 0.691407,-1.10156246 0.820313,-1.33593746 l 5.53125,-11.2851561 c 0.269531,-0.550781 0.515625,-0.796875 0.703125,-0.796875 0.152344,0 0.292969,0.375 0.292969,1.042969 l 0.257812,10.3710933 c 0.03516,1.96875001 -1.652344,1.38281251 -1.652344,2.19140626 0,0.10546875 0.05859,0.234375 0.292969,0.234375 0.667969,0 1.523438,-0.1054687475 2.355469,-0.1054687475 1.066406,0 2.003906,0.1054687475 2.507812,0.1054687475 0.292969,0 0.644532,0 0.644532,-0.26953125 0,-0.92578121 -1.980469,0.0585938 -2.109375,-2.19140621 z m 15.83789,0.164062 c 0.164063,-0.316406 0.292969,-0.316406 0.421875,0 l 2.625,6.4453128 c 0.128907,0.3398438 0.164063,0.5273438 -0.433593,0.5273438 H 33.47457 c -0.351562,0 -0.539062,-0.1054688 -0.351562,-0.4804688 z m 5.050782,11.3554691 c 0.269531,0.7265625 0.832031,1.9570312 0.832031,2.5429687 0,1.00781251 -1.605469,0.75000001 -1.605469,1.38281251 0,0.26953125 0.421875,0.26953125 0.585938,0.26953125 0.714843,0 1.441406,-0.1054687475 2.167968,-0.1054687475 1.089844,0 2.191407,0.1054687475 3.28125,0.1054687475 0.1875,0 0.375,0 0.375,-0.234375 0,-0.66796875 -1.546875,-0.0820313 -2.355468,-1.31249996 -0.609375,-0.9375 -0.9375,-2.0625 -1.335938,-3.046875 L 37.587852,-18.246061 c -0.08203,-0.210937 -0.269532,-0.996094 -0.5625,-0.996094 -0.339844,0 -0.421875,0.433594 -2.003907,3.796875 l -6.386718,13.6289066 c -0.691407,1.52343746 -1.945313,1.06640621 -1.945313,1.62890621 0,0.1640625 0.08203,0.29296875 0.234375,0.29296875 0.703125,0 1.417969,-0.1054687475 2.144531,-0.1054687475 0.75,0 1.488282,0.1054687475 2.238282,0.1054687475 0.351562,0 0.726562,0.0820313 0.726562,-0.3984375 0,-0.69140625 -1.898437,0.10546875 -1.898437,-1.76953126 0,-0.3398437 0.105468,-0.7382812 0.1875,-0.9257812 l 1.710937,-3.75 c 0.269531,-0.5507813 0.75,-0.5507813 1.253906,-0.5507813 h 5.882813 c 0.738281,0 0.902344,0.3984375 1.171875,1.0078125 z m 18.700195,-5.4726563 c 1.875,-0.7499998 3.363281,-2.5429688 3.363281,-4.6289058 0,-5.15625 -5.90625,-4.617188 -6.328125,-4.617188 -1.394531,0 -2.917969,0.105469 -4.464844,0.105469 -1.359375,0 -1.230468,-0.105469 -1.710937,-0.105469 -0.316406,0 -0.527344,0.164063 -0.527344,0.316406 0,0.914063 2.296875,-0.1875 2.296875,2.378907 v 13.6054683 c 0,2.02734376 -1.957031,1.65234376 -1.957031,2.32031251 0,0.1640625 0.105469,0.29296875 0.269531,0.29296875 1.019531,0 2.027344,-0.1054687475 3.046875,-0.1054687475 2.214844,0 2.835938,0.1054687475 3.070313,0.1054687475 0.210937,0 0.457031,0.0585938 0.457031,-0.2109375 0,-0.91406246 -2.777344,-0.0820313 -2.777344,-2.37890626 v -5.6367187 c 0,-0.2695313 -0.164062,-0.75 0.691406,-0.75 2.988282,0 2.589844,-0.082031 3.550782,1.4179687 l 2.964843,4.6757813 c 1.019532,1.5234375 2.0625,2.88281246 4.007813,2.88281246 0.246094,0 1.746094,0 1.746094,-0.31640625 0,-0.64453125 -1.3125,0.33984375 -3.234375,-2.58984371 z M 54.635703,-16.94528 c 0,-1.03125 0.5625,-0.984375 1.523438,-0.984375 2.613281,0 5.097656,1.101563 5.097656,4.359375 0,3.304688 -2.566406,3.7968753 -3.714844,3.7968753 -1.253906,0 -2.90625,0.1289063 -2.90625,-0.3750003 z m 20.994141,6.738282 c -0.105469,0.105468 -0.210938,0.128906 -0.292969,0.128906 -0.08203,0 -0.128906,-0.105469 -0.128906,-0.257813 v -6.011718 c 0,-1.898438 1.546875,-1.628907 1.546875,-2.226563 0,-0.152344 -0.08203,-0.234375 -0.210938,-0.234375 -0.808593,0 -1.628906,0.105469 -2.753906,0.105469 -0.878906,0 -1.734375,-0.105469 -2.589844,-0.105469 -0.246093,0 -0.351562,0.04687 -0.351562,0.292969 0,0.691406 2.25,0.05859 2.25,2.273437 v 13.6757816 c 0,2.27343746 -1.898438,1.81640621 -1.898438,2.24999996 0,0.3984375 0.375,0.421875 0.667969,0.421875 0.421875,0 1.253906,-0.1054687475 2.613281,-0.1054687475 2.0625,0 2.542969,0.1054687475 2.625,0.1054687475 0.152344,0 0.714844,0 0.714844,-0.26953125 0,-0.96093751 -2.613281,0.29296875 -2.613281,-2.67187501 v -5.578125 c 0,-0.1875 0.105469,-0.2695312 0.234375,-0.2695312 0.140625,0 0.328125,0.082031 0.480469,0.2695312 l 7.535156,7.85156251 c 0.246094,0.24609375 0.457031,0.66796875 0.808594,0.66796875 0.550781,0 1.089843,-0.1054687475 1.652343,-0.1054687475 0.539063,0 1.089844,0.1054687475 1.628907,0.1054687475 0.1875,0 0.316406,-0.12890625 0.316406,-0.3515625 0,-0.82031246 -1.148438,0.1875 -2.929688,-1.67578126 l -7.429687,-7.78125 c -0.1875,-0.2109375 -0.292969,-0.3398438 -0.292969,-0.5039058 0,-0.128907 0.152344,-0.292969 0.398438,-0.503907 l 6.246093,-5.566406 c 3.046875,-2.484375 3.667969,-1.464844 3.667969,-2.320312 0,-0.1875 -0.328125,-0.210938 -0.480469,-0.210938 -0.855468,0 -1.066406,0.105469 -2.460937,0.105469 -1.417969,0 -1.839844,-0.105469 -2.835938,-0.105469 -0.210937,0 -0.339843,0.105469 -0.339843,0.316406 0,0.480469 1.488281,0.398438 1.488281,1.253907 0,0.667968 -1.382813,1.710937 -1.898438,2.167968 z m 20.115234,-5.800782 c 0,-1.78125 -0.04687,-1.675781 2.519531,-1.675781 1.066407,0 3.843751,-0.164062 4.535161,0.738281 0.43359,0.621094 0,1.898438 0.64453,1.898438 0.16406,0 0.52734,-0.210938 0.52734,-3.175781 0,-0.316407 -0.0469,-0.585938 -0.25781,-0.585938 -0.83203,0 -3.29297,0.105469 -3.820314,0.105469 -1.125,0 -2.519532,-0.105469 -7.570313,-0.105469 -0.773437,0 -0.925781,0.105469 -0.925781,0.316406 0,0.328125 0.585937,0.375 0.796875,0.433594 1.441406,0.210938 1.441406,1.488281 1.441406,2.695313 v 12.1874996 c 0,1.2539062 -0.04687,2.0039062 -0.75,2.32031246 -0.855469,0.43359375 -1.113281,0.375 -1.171875,0.69140625 0,0.22265625 0.164063,0.26953125 0.398438,0.26953125 1.066406,0 2.191406,-0.08203125 3.257812,-0.1054687475 2.039063,-0.0585937525 4.066406,0.1054687475 6.093752,0.1054687475 1.17187,0 1.76953,0.0585938 2.625,-0.90234375 0.63281,-0.70312501 1.33594,-1.62890621 1.33594,-2.60156251 0,-0.046875 -0.0352,-0.3164062 -0.22266,-0.3164062 -0.33984,0 -1.25391,2.75390621 -7.417969,2.75390621 -2.25,0 -2.039063,-0.64453121 -2.039063,-2.21484371 v -4.921875 c 0,-0.3984375 -0.08203,-0.8554688 0.480469,-0.8554688 h 3.960933 c 2.23829,0 1.33594,2.3554688 2.15625,2.3554688 0.1875,0 0.29297,-0.1054688 0.29297,-0.3515625 0,-0.7148438 -0.0469,-1.4179688 -0.0469,-2.109375 0,-0.8554688 0.0469,-1.7578121 0.0469,-2.6953121 0,-0.210938 -0.0703,-0.515625 -0.29297,-0.515625 -0.63281,0 0.082,2.144531 -2.695308,2.144531 h -2.882813 c -1.066406,0 -1.019531,0 -1.019531,-0.914063 z m 20.440432,13.7929691 c 0,1.60546871 -2.10938,1.33593746 -2.10938,1.96874996 0,0.26953125 0.0703,0.3515625 0.31641,0.3515625 0.16406,0 0.66797,-0.1054687475 3.65625,-0.1054687475 0.77344,0 1.52344,0.1054687475 2.16797,0.1054687475 0.26953,0 0.24609,-0.234375 0.24609,-0.31640625 0,-0.83203121 -2.16797,0.046875 -2.16797,-2.19140621 V -16.031217 c 0,-1.417969 -0.14062,-1.3125 1.06641,-1.3125 h 3.82031 c 2.73047,0 1.28906,2.039062 2.27344,2.039062 0.35156,0 0.31641,-0.328125 0.29297,-0.597656 l -0.12891,-2.132812 c -0.0352,-0.609375 -0.16406,-0.773438 -0.78515,-0.773438 -0.52735,0 -2.98829,0.105469 -7.82813,0.105469 -3.44531,0 -5.49609,-0.105469 -7.58203,-0.105469 -0.48047,0 -0.45703,0.714844 -0.48047,1.042969 l -0.29297,2.589844 c 0,0.128906 0.10547,0.316406 0.26953,0.316406 0.33985,0 0.375,-0.339844 0.44532,-0.609375 0.48046,-1.476563 0.53906,-1.875 2.1914,-1.875 h 4.35938 c 0.375,0.03516 0.26953,1.042969 0.26953,1.230469 z m 15.96679,-0.6210938 c 0,2.64843751 -2.07421,1.7695313 -2.07421,2.54296876 0,0.26953125 0.0703,0.3984375 0.55078,0.3984375 0.375,0 0.9375,-0.1054687475 2.5664,-0.1054687475 1.14844,0 2.29688,0.1054687475 2.91797,0.1054687475 0.45703,0 0.52735,-0.08203125 0.52735,-0.26953125 0,-0.796875 -2.36719,-0.1875 -2.36719,-2.00390621 V -16.511686 c 0,-2.003906 1.92187,-1.394531 1.92187,-2.027344 0,-0.222656 -0.082,-0.269531 -0.51562,-0.269531 -0.82031,0 -1.65235,0.105469 -2.48438,0.105469 -0.98437,0 -1.94531,-0.105469 -2.92968,-0.105469 -0.22266,0 -0.26954,0.04687 -0.26954,0.292969 0,0.585937 2.13282,0.05859 2.15625,2.003906 z m 11.3584,-0.8554687 c 0,3.74999996 -2.34375,2.5664062 -2.34375,3.50390621 0,0.12890625 0.0234,0.29296875 0.33985,0.29296875 0.1875,0 1.58203,-0.1054687475 2.51953,-0.1054687475 1.30078,0 2.05078,0.1054687475 2.69531,0.1054687475 0.26953,0 0.29297,-0.2109375 0.29297,-0.3515625 0,-0.71484375 -2.35547,0.22265625 -2.35547,-2.17968746 V -13.359342 c 0,-0.539063 0.082,-0.609375 0.1875,-0.609375 0.1875,0 0.51563,0.445312 0.5625,0.503906 l 11.48438,12.92578131 c 0.5625,0.62109375 0.83203,0.75 1.01953,0.75 0.21093,0 0.24609,-0.375 0.24609,-1.1484375 V -16.406217 c 0,-1.945313 1.57031,-1.464844 1.57031,-2.167969 0,-0.152344 -0.10547,-0.234375 -0.26953,-0.234375 -0.63281,0 -1.78125,0.105469 -2.69531,0.105469 -0.85547,0 -1.62891,-0.105469 -2.42578,-0.105469 -0.16406,0 -0.29297,0.08203 -0.29297,0.269531 0,0.878907 2.96484,-0.140625 2.96484,3.363282 v 11.1679683 c 0,0.2109375 -0.0352,0.2929688 -0.082,0.2929688 -0.0586,0 -0.16406,-0.1054688 -0.32812,-0.2929688 L 143.86227,-18.199186 c -0.16407,-0.1875 -0.39844,-0.609375 -0.69141,-0.609375 -0.41016,0 -0.83203,0.105469 -1.23047,0.105469 -0.43359,0 -0.83203,-0.105469 -1.25391,-0.105469 -0.14062,0 -0.41015,0.105469 -0.41015,0.269531 0,0.984375 3.23437,-0.5625 3.23437,4.992188 z m 35.02149,-6.140625 c -0.23438,0 -0.60938,-0.058594 -0.60938,0.2929687 0,0.6679688 2.32032,0.1054688 2.32032,1.359375 v 4.1484375 c 0,2.2734375 -3.11719,3.46875001 -5.55469,3.46875001 -5.15625,0 -7.875,-4.51171871 -7.875,-9.24609371 0,-4.4062501 2.40234,-8.4726561 7.20703,-8.4726561 6.30469,0 7.51172,5.167969 8.20312,5.167969 0.26954,0 0.29297,-0.269532 0.29297,-0.492188 l -0.26953,-3.492187 c -0.0234,-0.210938 0.082,-0.621094 -0.29297,-0.621094 -0.29297,0 -0.39843,0.480469 -0.6914,0.480469 -0.75,0 -2.08594,-1.816407 -6.70313,-1.816407 -5.67187,0 -9.99609,3.984375 -9.99609,9.7617191 0,5.9296875 3.65625,9.58593746 9.5625,9.58593746 4.75781,0 5.48437,-1.81640626 8.22656,-2.69531246 v -5.4492188 c 0,-1.7929687 1.37109,-1.1835937 1.37109,-1.7460937 0,-0.3398438 -0.51562,-0.234375 -0.72656,-0.234375 z m 0,0"
       style="fill:#231f20;fill-opacity:1;fill-rule:nonzero;stroke:none"
       aria-label="MARKETING"
       transform="matrix(0.36216756,0,0,0.39186095,64.115281,145.61663)"
       clip-path="url(#clipPath17)" />
  </g>
</svg>
